<?xml version="1.0" standalone="no"?>
<!DOCTYPE svg PUBLIC "-//W3C//DTD SVG 20010904//EN"
 "http://www.w3.org/TR/2001/REC-SVG-20010904/DTD/svg10.dtd">
<svg version="1.0" xmlns="http://www.w3.org/2000/svg"
 width="500.000000pt" height="740.000000pt" viewBox="0 0 1300.000000 740.000000"
 preserveAspectRatio="xMidYMid meet">

<g transform="translate(0.000000,740.000000) scale(0.100000,-0.100000)"
fill="#FFFFFF" stroke="none">
<path d="M6706 6008 c-34 -19 -46 -71 -46 -202 0 -289 79 -647 183 -836 91
-163 210 -296 313 -346 48 -24 72 -29 129 -29 121 0 195 51 380 259 86 98 142
127 258 134 79 5 170 -9 215 -32 23 -12 23 -12 -15 -37 -45 -29 -86 -102 -78
-139 3 -14 15 -60 27 -103 l22 -79 -23 -43 c-40 -75 -49 -80 -169 -80 -79 -1
-119 -6 -152 -20 -86 -35 -204 -122 -300 -221 -105 -110 -175 -210 -271 -389
-75 -141 -158 -233 -225 -253 -123 -36 -233 19 -290 143 -51 111 -39 189 37
243 21 15 39 33 39 40 0 15 -10 10 -64 -32 -69 -54 -84 -136 -42 -238 49 -119
137 -188 241 -188 67 0 109 15 164 56 56 43 82 79 171 239 40 72 91 158 114
192 103 153 262 300 394 366 74 36 91 41 157 41 40 1 76 -2 80 -6 4 -4 -25
-37 -64 -73 -49 -47 -81 -87 -102 -131 -29 -59 -31 -70 -27 -142 3 -61 12 -94
36 -145 198 -424 808 -675 1392 -573 88 16 110 27 110 58 0 34 -33 70 -211
229 -464 417 -839 701 -1004 763 -28 11 -51 20 -53 21 -2 2 13 24 32 50 48 63
53 87 31 165 -10 36 -20 86 -22 111 -4 41 -1 51 29 84 18 21 46 46 61 55 26
16 31 16 84 -1 68 -23 85 -23 123 -4 35 18 39 49 11 65 -27 14 -108 12 -154
-4 -34 -13 -44 -12 -95 7 -80 29 -230 35 -308 12 -83 -24 -132 -62 -214 -165
-73 -92 -152 -161 -225 -195 -64 -31 -157 -26 -225 11 -64 34 -173 140 -228
221 -146 215 -236 534 -249 884 -8 218 9 262 91 234 156 -54 375 -297 782
-869 101 -142 133 -175 120 -120 -8 32 -25 56 -35 50 -3 -2 -62 75 -131 172
-261 366 -420 560 -557 677 -113 97 -203 138 -247 113z m1653 -1047 c7 -5 10
-14 7 -20 -12 -19 -126 -11 -126 9 0 17 96 25 119 11z m-268 -554 c176 -77
454 -287 909 -688 197 -174 285 -263 277 -282 -7 -19 -78 -34 -229 -48 -462
-42 -954 154 -1170 469 -55 80 -90 169 -96 242 -7 97 23 157 129 261 44 43 86
79 92 79 7 0 46 -15 88 -33z"/>
<path d="M6695 4385 c-38 -7 -78 -14 -87 -14 -10 -1 -18 -8 -18 -16 0 -11 4
-13 18 -6 25 14 196 31 299 31 141 -1 253 -32 270 -76 15 -40 -15 -75 -117
-136 -19 -12 -30 -23 -23 -25 17 -6 86 32 127 70 66 63 39 136 -62 168 -56 18
-323 21 -407 4z"/>
<path d="M6470 4325 c-17 -20 5 -20 40 0 l25 14 -26 1 c-15 0 -32 -7 -39 -15z"/>
<path d="M6374 4285 c-10 -8 -14 -15 -8 -15 5 0 19 7 30 15 10 8 14 15 8 15
-5 0 -19 -7 -30 -15z"/>
<path d="M6283 4240 c-13 -5 -23 -12 -23 -15 0 -9 16 -5 36 10 22 16 19 18
-13 5z"/>
<path d="M6172 4178 c-6 -6 -12 -19 -12 -27 0 -13 2 -13 16 1 9 9 15 21 13 27
-3 9 -8 8 -17 -1z"/>
<path d="M6129 4133 c-13 -16 -12 -17 4 -4 16 13 21 21 13 21 -2 0 -10 -8 -17
-17z"/>
<path d="M6080 4100 c-14 -11 -20 -20 -14 -20 6 0 19 9 29 20 23 25 17 25 -15
0z"/>
<path d="M6924 4105 c-19 -14 -19 -14 2 -15 12 0 27 7 34 15 17 20 -9 21 -36
0z"/>
<path d="M6820 4054 c0 -14 3 -14 15 -4 8 7 15 14 15 16 0 2 -7 4 -15 4 -8 0
-15 -7 -15 -16z"/>
<path d="M5990 4022 c-14 -9 -72 -57 -130 -107 -256 -220 -489 -356 -775 -451
-181 -60 -258 -74 -425 -81 -215 -8 -312 16 -730 177 -74 28 -182 63 -240 77
-349 87 -745 -36 -1110 -344 -84 -71 -510 -501 -518 -524 -2 -5 -8 -9 -14 -9
-5 0 -35 -22 -66 -48 -181 -154 -380 -248 -607 -288 -74 -13 -155 -17 -310
-17 -264 0 -498 25 -887 97 -124 22 -178 28 -178 20 0 -6 15 -14 33 -17 573
-101 735 -120 1027 -121 251 -1 355 13 515 65 233 78 361 172 710 524 340 342
438 421 663 534 186 93 335 131 519 131 155 0 260 -26 531 -129 367 -140 438
-156 667 -148 124 4 183 11 260 31 311 78 606 225 860 429 101 82 206 175 223
199 16 22 14 22 -18 0z"/>
</g>
</svg>
