<svg xmlns="http://www.w3.org/2000/svg" width="300" height="300" viewBox="0 0 300 300"><g fill="none" fill-rule="evenodd"><path fill="#FF5A4A" d="M300 150c0 82.842-67.158 150-150 150S0 232.842 0 150 67.158 0 150 0s150 67.158 150 150"/><path fill="#FFF" d="M153.264 88.044a16.305 16.305 0 1 0 0 32.61 16.305 16.305 0 0 0 0-32.61m-52.176 0a16.305 16.305 0 1 0 0 32.61 16.305 16.305 0 0 0 0-32.61m104.352 0a16.308 16.308 0 1 0 0 32.61 16.308 16.308 0 0 0 0-32.61m-52.176 52.176a16.308 16.308 0 1 0 0 32.61 16.308 16.308 0 0 0 0-32.61m0 52.17a16.308 16.308 0 1 0 0 32.616 16.308 16.308 0 0 0 0-32.616"/></g></svg>